<?xml version="1.0" encoding="iso-8859-1"?>
<!-- Generator: Adobe Illustrator 19.0.0, SVG Export Plug-In . SVG Version: 6.00 Build 0)  -->
<svg version="1.1" id="Capa_1" xmlns="http://www.w3.org/2000/svg" xmlns:xlink="http://www.w3.org/1999/xlink" x="0px" y="0px"
	 viewBox="0 0 58 58" style="enable-background:new 0 0 58 58;" xml:space="preserve">
<rect x="6" style="fill:#38454F;" width="23" height="54"/>
<rect x="9" y="3" style="fill:#48A0DC;" width="17" height="48"/>
<polygon style="fill:#7F8C8D;" points="11,58 8,58 8,54 13,54 "/>
<polygon style="fill:#7F8C8D;" points="25,58 28,58 28,54 23,54 "/>
<path style="fill:#2980BA;" d="M21,10h-7c-0.552,0-1-0.448-1-1s0.448-1,1-1h7c0.552,0,1,0.448,1,1S21.552,10,21,10z"/>
<path style="fill:#2980BA;" d="M21,13h-7c-0.552,0-1-0.448-1-1s0.448-1,1-1h7c0.552,0,1,0.448,1,1S21.552,13,21,13z"/>
<path style="fill:#2980BA;" d="M21,16h-7c-0.552,0-1-0.448-1-1s0.448-1,1-1h7c0.552,0,1,0.448,1,1S21.552,16,21,16z"/>
<path style="fill:#ECF0F1;" d="M22,34c-0.552,0-1-0.448-1-1v-5c0-0.552,0.448-1,1-1s1,0.448,1,1v5C23,33.552,22.552,34,22,34z"/>
<rect x="29" style="fill:#546A79;" width="23" height="54"/>
<rect x="32" y="3" style="fill:#48A0DC;" width="17" height="48"/>
<polygon style="fill:#7F8C8D;" points="34,58 31,58 31,54 36,54 "/>
<polygon style="fill:#7F8C8D;" points="48,58 51,58 51,54 46,54 "/>
<path style="fill:#2980BA;" d="M44,10h-7c-0.552,0-1-0.448-1-1s0.448-1,1-1h7c0.552,0,1,0.448,1,1S44.552,10,44,10z"/>
<path style="fill:#2980BA;" d="M44,13h-7c-0.552,0-1-0.448-1-1s0.448-1,1-1h7c0.552,0,1,0.448,1,1S44.552,13,44,13z"/>
<path style="fill:#2980BA;" d="M44,16h-7c-0.552,0-1-0.448-1-1s0.448-1,1-1h7c0.552,0,1,0.448,1,1S44.552,16,44,16z"/>
<path style="fill:#ECF0F1;" d="M45,34c-0.552,0-1-0.448-1-1v-5c0-0.552,0.448-1,1-1s1,0.448,1,1v5C46,33.552,45.552,34,45,34z"/>
<g>
</g>
<g>
</g>
<g>
</g>
<g>
</g>
<g>
</g>
<g>
</g>
<g>
</g>
<g>
</g>
<g>
</g>
<g>
</g>
<g>
</g>
<g>
</g>
<g>
</g>
<g>
</g>
<g>
</g>
</svg>
